# xmcd CD database file
#
# Track frame offsets:
#	150
#	15606
#	35622
#	62286
#	87426
#	109162
#	125606
#	143734
#	171606
#	196526
#
# Disc length: 3086 seconds
#
# Revision: 0
# Processed by: cddbd v1.5.2PL0 Copyright (c) Steve Scherf et al.
# Submitted via: CDex 1.70beta2
#
DISCID=830c0c0a
DTITLE=Laptop Randy - Laptop Blues
DYEAR=1900
DGENRE=Blues
TTITLE0=Bad Dog
TTITLE1=Big Junior
TTITLE2=Mogen David Wine
TTITLE3=God Save The Queen
TTITLE4=Sweet Home Crose Bayou
TTITLE5=Every Ti e I Look into Your Eyes
TTITLE6=Red Car
TTITLE7=Big Yellow Taxi
TTITLE8=Laptop Blues
TTITLE9=The Withlacoochee Flood
EXTD=
EXTT0=
EXTT1=
EXTT2=
EXTT3=
EXTT4=
EXTT5=
EXTT6=
EXTT7=
EXTT8=
EXTT9=
PLAYORDER=
